<svg width="32" height="33" viewBox="0 0 32 33" fill="none" xmlns="http://www.w3.org/2000/svg">
<path d="M30.9909 15.417C30.5839 12.6483 27.6766 11.2317 25.3508 12.3907L22.9086 13.6141C20.5827 14.7731 17.9664 14.7731 15.6405 13.6141L13.1983 12.3907C10.8724 11.2317 7.96518 12.6483 7.55825 15.417C7.5 15.6101 7.5 15.8676 7.5 16.1252C7.5 16.3183 7.5 16.5758 7.55825 16.8334C7.96518 19.6021 10.8726 21.0187 13.1983 19.8596L15.6405 18.6363C17.9664 17.4773 20.5827 17.4773 22.9086 18.6363L25.3508 19.8596C27.6768 21.0187 30.5839 19.6021 30.9909 16.8334C31.0489 16.6403 31.0489 16.3828 31.0489 16.1252C31.0489 15.9321 31.0489 15.6746 30.9909 15.417Z" fill="white"/>
<path d="M5.69828 7.88378L8.14048 6.66047C10.4664 5.50143 13.0827 5.50143 15.4086 6.66047L17.8508 7.88378C20.1768 9.04282 23.0839 7.62622 23.4909 4.85752C23.5489 4.66446 23.5489 4.40689 23.5489 4.14933C23.5489 3.95627 23.5489 3.6987 23.4909 3.44114C23.0839 0.67244 20.1766 -0.744159 17.8508 0.414877L15.4086 1.6382C13.0827 2.79723 10.4664 2.79723 8.14048 1.6382L5.69828 0.414877C3.37237 -0.744159 0.465181 0.607941 0.058245 3.44114C-4.06383e-08 3.6342 0 3.89177 0 4.14933C0 4.34261 -4.06383e-08 4.59996 0.058245 4.85752C0.465181 7.62622 3.37237 9.04282 5.69828 7.88378Z" fill="white"/>
<path d="M17.8508 24.2384L15.4086 25.4617C13.0827 26.6208 10.4664 26.6208 8.14048 25.4617L5.69828 24.2384C3.37237 23.0794 0.465181 24.496 0.058245 27.2647C-4.06383e-08 27.4578 0 27.7153 0 27.9729C0 28.1662 -4.06383e-08 28.4235 0.058245 28.6811C0.465181 31.4498 3.37256 32.8664 5.69828 31.7073L8.14048 30.484C10.4664 29.325 13.0827 29.325 15.4086 30.484L17.8508 31.7073C20.1768 32.8664 23.0839 31.4498 23.4909 28.6811C23.5489 28.4878 23.5489 28.2304 23.5489 27.9729C23.5489 27.7798 23.5489 27.5223 23.4909 27.2647C23.0839 24.4958 20.1766 23.0794 17.8508 24.2384Z" fill="white"/>
</svg>
