<svg width="201" height="19" viewBox="0 0 201 19" fill="none" xmlns="http://www.w3.org/2000/svg">
<path d="M0.136 18V0.959999H1.816V18H0.136ZM7.76913 4.056V18H6.08913V0.959999H7.48112L18.6651 15.168V0.983999H20.3451V18H18.7851L7.76913 4.056ZM24.6282 18V0.959999H35.8122V2.448H26.3082V8.712H34.3242V10.104H26.3082V18H24.6282ZM45.2969 18.12C44.0969 18.12 43.0089 17.88 42.0329 17.4C41.0569 16.92 40.2169 16.272 39.5129 15.456C38.8089 14.624 38.2649 13.696 37.8809 12.672C37.4969 11.632 37.3049 10.568 37.3049 9.48C37.3049 8.344 37.5049 7.264 37.9049 6.24C38.3049 5.2 38.8649 4.28 39.5849 3.48C40.3209 2.664 41.1769 2.024 42.1529 1.56C43.1289 1.08 44.1849 0.839999 45.3209 0.839999C46.5209 0.839999 47.6089 1.088 48.5849 1.584C49.5609 2.08 50.3929 2.744 51.0809 3.576C51.7849 4.408 52.3289 5.336 52.7129 6.36C53.0969 7.384 53.2889 8.432 53.2889 9.504C53.2889 10.64 53.0889 11.728 52.6889 12.768C52.2889 13.792 51.7289 14.712 51.0089 15.528C50.2889 16.328 49.4409 16.96 48.4649 17.424C47.4889 17.888 46.4329 18.12 45.2969 18.12ZM38.9849 9.48C38.9849 10.408 39.1369 11.304 39.4409 12.168C39.7449 13.016 40.1769 13.776 40.7369 14.448C41.2969 15.104 41.9609 15.632 42.7289 16.032C43.5129 16.416 44.3689 16.608 45.2969 16.608C46.2729 16.608 47.1449 16.408 47.9129 16.008C48.6969 15.592 49.3609 15.048 49.9049 14.376C50.4649 13.688 50.8889 12.92 51.1769 12.072C51.4649 11.224 51.6089 10.36 51.6089 9.48C51.6089 8.552 51.4569 7.664 51.1529 6.816C50.8489 5.968 50.4089 5.208 49.8329 4.536C49.2729 3.864 48.6089 3.336 47.8409 2.952C47.0729 2.568 46.2249 2.376 45.2969 2.376C44.3369 2.376 43.4649 2.576 42.6809 2.976C41.9129 3.376 41.2489 3.92 40.6889 4.608C40.1449 5.28 39.7209 6.04 39.4169 6.888C39.1289 7.736 38.9849 8.6 38.9849 9.48ZM56.4563 18V0.959999H63.6563C64.3923 0.959999 65.0643 1.112 65.6723 1.416C66.2803 1.72 66.8083 2.136 67.2563 2.664C67.7203 3.176 68.0723 3.752 68.3123 4.392C68.5683 5.016 68.6963 5.656 68.6963 6.312C68.6963 7.128 68.5363 7.896 68.2163 8.616C67.9123 9.336 67.4723 9.944 66.8963 10.44C66.3363 10.936 65.6723 11.264 64.9043 11.424L69.0803 18H67.1843L63.1763 11.712H58.1363V18H56.4563ZM58.1363 10.224H63.7043C64.3763 10.224 64.9603 10.04 65.4563 9.672C65.9523 9.304 66.3363 8.824 66.6083 8.232C66.8803 7.624 67.0163 6.984 67.0163 6.312C67.0163 5.624 66.8563 4.992 66.5363 4.416C66.2323 3.824 65.8163 3.352 65.2883 3C64.7763 2.632 64.2003 2.448 63.5603 2.448H58.1363V10.224ZM87.232 18V4.128L81.064 14.904H80.008L73.816 4.128V18H72.136V0.959999H73.864L80.512 12.624L87.208 0.959999H88.912V18H87.232ZM98.4629 0.959999H99.8789L106.959 18H105.183L102.975 12.672H95.3189L93.1349 18H91.3349L98.4629 0.959999ZM102.591 11.352L99.1589 2.928L95.6789 11.352H102.591ZM119.857 2.448H113.785V18H112.105V2.448H106.033V0.959999H119.857V2.448ZM122.409 18V0.959999H124.089V18H122.409ZM128.291 0.959999L134.387 15.912L140.459 0.959999H142.211L135.155 18H133.619L126.539 0.959999H128.291ZM156.1 16.512V18H144.652V0.959999H155.884V2.448H146.332V8.592H154.66V10.008H146.332V16.512H156.1ZM158.701 18V15.648H160.117V18H158.701ZM176.64 13.608C176.64 14.456 176.424 15.216 175.992 15.888C175.56 16.544 174.976 17.064 174.24 17.448C173.52 17.816 172.728 18 171.864 18H163.824V0.959999H172.032C172.832 0.959999 173.52 1.176 174.096 1.608C174.688 2.024 175.136 2.568 175.44 3.24C175.76 3.896 175.92 4.584 175.92 5.304C175.92 6.152 175.704 6.936 175.272 7.656C174.84 8.376 174.24 8.912 173.472 9.264C174.448 9.552 175.216 10.088 175.776 10.872C176.352 11.656 176.64 12.568 176.64 13.608ZM174.96 13.32C174.96 12.744 174.832 12.216 174.576 11.736C174.32 11.24 173.968 10.84 173.52 10.536C173.088 10.232 172.592 10.08 172.032 10.08H165.504V16.536H171.864C172.44 16.536 172.96 16.384 173.424 16.08C173.888 15.776 174.256 15.384 174.528 14.904C174.816 14.408 174.96 13.88 174.96 13.32ZM165.504 2.424V8.712H171.36C171.92 8.712 172.416 8.568 172.848 8.28C173.28 7.976 173.624 7.584 173.88 7.104C174.136 6.624 174.264 6.112 174.264 5.568C174.264 4.992 174.144 4.472 173.904 4.008C173.664 3.528 173.336 3.144 172.92 2.856C172.504 2.568 172.032 2.424 171.504 2.424H165.504ZM179.808 18V0.959999H181.488V18H179.808ZM192.625 18.12C191.425 18.12 190.337 17.88 189.361 17.4C188.385 16.92 187.545 16.272 186.841 15.456C186.137 14.624 185.593 13.696 185.209 12.672C184.825 11.632 184.633 10.568 184.633 9.48C184.633 8.344 184.833 7.264 185.233 6.24C185.633 5.2 186.193 4.28 186.913 3.48C187.649 2.664 188.505 2.024 189.481 1.56C190.457 1.08 191.513 0.839999 192.649 0.839999C193.849 0.839999 194.937 1.088 195.913 1.584C196.889 2.08 197.721 2.744 198.409 3.576C199.113 4.408 199.657 5.336 200.041 6.36C200.425 7.384 200.617 8.432 200.617 9.504C200.617 10.64 200.417 11.728 200.017 12.768C199.617 13.792 199.057 14.712 198.337 15.528C197.617 16.328 196.769 16.96 195.793 17.424C194.817 17.888 193.761 18.12 192.625 18.12ZM186.313 9.48C186.313 10.408 186.465 11.304 186.769 12.168C187.073 13.016 187.505 13.776 188.065 14.448C188.625 15.104 189.289 15.632 190.057 16.032C190.841 16.416 191.697 16.608 192.625 16.608C193.601 16.608 194.473 16.408 195.241 16.008C196.025 15.592 196.689 15.048 197.233 14.376C197.793 13.688 198.217 12.92 198.505 12.072C198.793 11.224 198.937 10.36 198.937 9.48C198.937 8.552 198.785 7.664 198.481 6.816C198.177 5.968 197.737 5.208 197.161 4.536C196.601 3.864 195.937 3.336 195.169 2.952C194.401 2.568 193.553 2.376 192.625 2.376C191.665 2.376 190.793 2.576 190.009 2.976C189.241 3.376 188.577 3.92 188.017 4.608C187.473 5.28 187.049 6.04 186.745 6.888C186.457 7.736 186.313 8.6 186.313 9.48Z" fill="white"/>
</svg>
