<svg width="262" height="40" viewBox="0 0 262 40" fill="none" xmlns="http://www.w3.org/2000/svg">
<rect width="40" height="40" rx="5" fill="#5DA8FF"/>
<path d="M29.4463 19.1759C29.2041 17.528 27.4737 16.6848 26.0895 17.3747L24.6359 18.1028C23.2515 18.7926 21.6943 18.7926 20.31 18.1028L18.8564 17.3747C17.472 16.6848 15.7417 17.528 15.4995 19.1759C15.4648 19.2908 15.4648 19.4441 15.4648 19.5974C15.4648 19.7123 15.4648 19.8656 15.4995 20.0189C15.7417 21.6668 17.4722 22.5099 18.8564 21.8201L20.31 21.092C21.6943 20.4021 23.2515 20.4021 24.6359 21.092L26.0895 21.8201C27.4738 22.5099 29.2041 21.6668 29.4463 20.0189C29.4809 19.904 29.4809 19.7507 29.4809 19.5974C29.4809 19.4825 29.4809 19.3292 29.4463 19.1759Z" fill="white"/>
<path d="M14.3915 14.6923L15.8451 13.9642C17.2295 13.2744 18.7867 13.2744 20.171 13.9642L21.6246 14.6923C23.009 15.3822 24.7393 14.539 24.9815 12.8911C25.016 12.7762 25.016 12.6229 25.016 12.4696C25.016 12.3547 25.016 12.2014 24.9815 12.0481C24.7393 10.4002 23.0088 9.55709 21.6246 10.2469L20.171 10.975C18.7867 11.6649 17.2295 11.6649 15.8451 10.975L14.3915 10.2469C13.0072 9.55709 11.2769 10.3618 11.0347 12.0481C11 12.163 11 12.3163 11 12.4696C11 12.5847 11 12.7378 11.0347 12.8911C11.2769 14.539 13.0072 15.3822 14.3915 14.6923Z" fill="white"/>
<path d="M21.6246 24.4265L20.171 25.1546C18.7867 25.8444 17.2295 25.8444 15.8451 25.1546L14.3915 24.4265C13.0072 23.7366 11.2769 24.5798 11.0347 26.2276C11 26.3426 11 26.4959 11 26.6492C11 26.7642 11 26.9174 11.0347 27.0707C11.2769 28.7186 13.0073 29.5617 14.3915 28.8719L15.8451 28.1438C17.2295 27.4539 18.7867 27.4539 20.171 28.1438L21.6246 28.8719C23.009 29.5617 24.7393 28.7186 24.9815 27.0707C25.016 26.9556 25.016 26.8025 25.016 26.6492C25.016 26.5342 25.016 26.3809 24.9815 26.2276C24.7393 24.5796 23.0088 23.7366 21.6246 24.4265Z" fill="white"/>
<path d="M55.776 29V11.96H59.088V29H55.776ZM65.9552 18.056V29H62.6432V11.96H65.2832L74.0912 23.192V11.984H77.4032V29H74.6432L65.9552 18.056ZM80.9479 29V11.96H92.3959V14.864H84.2599V19.256H91.0279V21.944H84.2599V29H80.9479ZM101.743 29.12C100.495 29.12 99.3593 28.88 98.3353 28.4C97.3273 27.92 96.4553 27.272 95.7193 26.456C94.9993 25.624 94.4393 24.696 94.0393 23.672C93.6393 22.632 93.4393 21.568 93.4393 20.48C93.4393 19.344 93.6473 18.264 94.0633 17.24C94.4953 16.2 95.0793 15.28 95.8153 14.48C96.5673 13.664 97.4473 13.024 98.4553 12.56C99.4793 12.08 100.599 11.84 101.815 11.84C103.047 11.84 104.167 12.088 105.175 12.584C106.199 13.08 107.071 13.744 107.791 14.576C108.511 15.408 109.071 16.336 109.471 17.36C109.871 18.384 110.071 19.44 110.071 20.528C110.071 21.648 109.863 22.728 109.447 23.768C109.031 24.792 108.447 25.712 107.695 26.528C106.959 27.328 106.079 27.96 105.055 28.424C104.047 28.888 102.943 29.12 101.743 29.12ZM96.7993 20.48C96.7993 21.216 96.9113 21.928 97.1353 22.616C97.3593 23.304 97.6793 23.92 98.0953 24.464C98.5273 24.992 99.0473 25.416 99.6553 25.736C100.279 26.04 100.983 26.192 101.767 26.192C102.567 26.192 103.279 26.032 103.903 25.712C104.527 25.376 105.047 24.936 105.463 24.392C105.879 23.832 106.191 23.216 106.399 22.544C106.623 21.856 106.735 21.168 106.735 20.48C106.735 19.744 106.615 19.04 106.375 18.368C106.151 17.68 105.823 17.072 105.391 16.544C104.975 16 104.455 15.576 103.831 15.272C103.223 14.952 102.535 14.792 101.767 14.792C100.951 14.792 100.231 14.96 99.6073 15.296C98.9993 15.616 98.4873 16.048 98.0713 16.592C97.6553 17.136 97.3353 17.744 97.1113 18.416C96.9033 19.088 96.7993 19.776 96.7993 20.48ZM112.612 29V11.96H120.148C120.932 11.96 121.652 12.12 122.308 12.44C122.98 12.76 123.556 13.192 124.036 13.736C124.532 14.28 124.908 14.888 125.164 15.56C125.436 16.232 125.572 16.92 125.572 17.624C125.572 18.344 125.444 19.04 125.188 19.712C124.948 20.368 124.596 20.944 124.132 21.44C123.668 21.936 123.124 22.32 122.5 22.592L126.388 29H122.74L119.236 23.288H115.924V29H112.612ZM115.924 20.384H120.076C120.492 20.384 120.86 20.264 121.18 20.024C121.5 19.768 121.756 19.432 121.948 19.016C122.14 18.6 122.236 18.136 122.236 17.624C122.236 17.08 122.124 16.608 121.9 16.208C121.676 15.792 121.388 15.464 121.036 15.224C120.7 14.984 120.332 14.864 119.932 14.864H115.924V20.384ZM142.469 29V17.816L138.101 26.144H136.253L131.885 17.816V29H128.573V11.96H132.125L137.165 21.656L142.253 11.96H145.781V29H142.469ZM153.971 11.96H157.331L163.595 29H160.187L158.603 24.752H152.651L151.09 29H147.683L153.971 11.96ZM158.003 22.424L155.651 15.392L153.203 22.424H158.003ZM176.614 14.864H171.166V29H167.878V14.864H162.43V11.96H176.614V14.864ZM178.729 29V11.96H182.041V29H178.729ZM187.348 11.96L191.956 25.064L196.516 11.96H199.996L193.54 29H190.348L183.868 11.96H187.348ZM213.647 26.096V29H201.815V11.96H213.431V14.864H205.127V18.968H212.303V21.656H205.127V26.096H213.647Z" fill="#5DA8FF"/>
<path d="M215.845 29V25.544H218.485V29H215.845ZM235.348 24.608C235.348 25.568 235.1 26.376 234.604 27.032C234.108 27.672 233.436 28.16 232.588 28.496C231.756 28.832 230.844 29 229.852 29H221.62V11.96H230.74C231.54 11.96 232.228 12.176 232.804 12.608C233.396 13.024 233.844 13.568 234.148 14.24C234.468 14.896 234.628 15.584 234.628 16.304C234.628 17.12 234.42 17.896 234.004 18.632C233.588 19.368 232.98 19.912 232.18 20.264C233.156 20.552 233.924 21.072 234.484 21.824C235.06 22.576 235.348 23.504 235.348 24.608ZM232.012 23.984C232.012 23.552 231.924 23.168 231.748 22.832C231.572 22.48 231.332 22.208 231.028 22.016C230.74 21.808 230.404 21.704 230.02 21.704H224.932V26.192H229.852C230.252 26.192 230.612 26.096 230.932 25.904C231.268 25.696 231.532 25.424 231.724 25.088C231.916 24.752 232.012 24.384 232.012 23.984ZM224.932 14.792V19.088H229.348C229.716 19.088 230.052 19 230.356 18.824C230.66 18.648 230.9 18.4 231.076 18.08C231.268 17.76 231.364 17.376 231.364 16.928C231.364 16.496 231.276 16.12 231.1 15.8C230.94 15.48 230.716 15.232 230.428 15.056C230.156 14.88 229.844 14.792 229.492 14.792H224.932ZM237.932 29V11.96H241.244V29H237.932ZM252.071 29.12C250.823 29.12 249.687 28.88 248.663 28.4C247.655 27.92 246.783 27.272 246.047 26.456C245.327 25.624 244.767 24.696 244.367 23.672C243.967 22.632 243.767 21.568 243.767 20.48C243.767 19.344 243.975 18.264 244.391 17.24C244.823 16.2 245.407 15.28 246.143 14.48C246.895 13.664 247.775 13.024 248.783 12.56C249.807 12.08 250.927 11.84 252.143 11.84C253.375 11.84 254.495 12.088 255.503 12.584C256.527 13.08 257.399 13.744 258.119 14.576C258.839 15.408 259.399 16.336 259.799 17.36C260.199 18.384 260.399 19.44 260.399 20.528C260.399 21.648 260.191 22.728 259.775 23.768C259.359 24.792 258.775 25.712 258.023 26.528C257.287 27.328 256.407 27.96 255.383 28.424C254.375 28.888 253.271 29.12 252.071 29.12ZM247.127 20.48C247.127 21.216 247.239 21.928 247.463 22.616C247.687 23.304 248.007 23.92 248.423 24.464C248.855 24.992 249.375 25.416 249.983 25.736C250.607 26.04 251.311 26.192 252.095 26.192C252.895 26.192 253.607 26.032 254.231 25.712C254.855 25.376 255.375 24.936 255.791 24.392C256.207 23.832 256.519 23.216 256.727 22.544C256.951 21.856 257.063 21.168 257.063 20.48C257.063 19.744 256.943 19.04 256.703 18.368C256.479 17.68 256.151 17.072 255.719 16.544C255.303 16 254.783 15.576 254.159 15.272C253.551 14.952 252.863 14.792 252.095 14.792C251.279 14.792 250.559 14.96 249.935 15.296C249.327 15.616 248.815 16.048 248.399 16.592C247.983 17.136 247.663 17.744 247.439 18.416C247.231 19.088 247.127 19.776 247.127 20.48Z" fill="white"/>
</svg>
