<svg width="35" height="35" viewBox="0 0 35 35" fill="none" xmlns="http://www.w3.org/2000/svg">
<path d="M27.7077 32.0833H7.29102C6.13069 32.0833 5.0179 31.6224 4.19742 30.8019C3.37695 29.9814 2.91602 28.8686 2.91602 27.7083V4.37496C2.91602 3.98819 3.06966 3.61725 3.34315 3.34376C3.61664 3.07027 3.98757 2.91663 4.37435 2.91663H24.791C25.1778 2.91663 25.5487 3.07027 25.8222 3.34376C26.0957 3.61725 26.2493 3.98819 26.2493 4.37496V21.875H32.0827V27.7083C32.0827 28.8686 31.6217 29.9814 30.8013 30.8019C29.9808 31.6224 28.868 32.0833 27.7077 32.0833ZM26.2493 24.7916V27.7083C26.2493 28.0951 26.403 28.466 26.6765 28.7395C26.95 29.013 27.3209 29.1666 27.7077 29.1666C28.0945 29.1666 28.4654 29.013 28.7389 28.7395C29.0124 28.466 29.166 28.0951 29.166 27.7083V24.7916H26.2493ZM23.3327 29.1666V5.83329H5.83268V27.7083C5.83268 28.0951 5.98633 28.466 6.25982 28.7395C6.53331 29.013 6.90424 29.1666 7.29102 29.1666H23.3327ZM8.74935 10.2083H20.416V13.125H8.74935V10.2083ZM8.74935 16.0416H20.416V18.9583H8.74935V16.0416ZM8.74935 21.875H16.041V24.7916H8.74935V21.875Z" fill="white"/>
</svg>
